<?xml version="1.0" encoding="utf-8"?>
<!-- Generator: Adobe Illustrator 25.0.1, SVG Export Plug-In . SVG Version: 6.00 Build 0)  -->
<svg version="1.1" id="katman_1" xmlns="http://www.w3.org/2000/svg" xmlns:xlink="http://www.w3.org/1999/xlink" x="0px" y="0px"
	 viewBox="0 0 32 32" style="enable-background:new 0 0 32 32;" xml:space="preserve">
<style type="text/css">
	.st0{fill:#3094D2;}
	.st1{fill:none;stroke:#0B1D2A;stroke-miterlimit:10;}
</style>
<rect y="0" class="st0" width="32" height="32"/>
<g>
	<path class="st1" d="M21.77,5.08L6.7,23.53V7.59c0-1.39,1.12-2.51,2.51-2.51H21.77z"/>
	<path class="st1" d="M25.3,8.4v16.02c0,1.38-1.12,2.5-2.51,2.5H10.17L25.3,8.4z"/>
	<polygon class="st1" points="23.47,9.01 20.67,12.43 11.99,23.06 10.22,25.22 8.08,23.47 10,21.12 18.65,10.53 21.33,7.25 	"/>
	<path class="st1" d="M14.66,9.01h-4.55c-0.19,0-0.34-0.15-0.34-0.34v0c0-0.19,0.15-0.34,0.34-0.34h4.55c0.19,0,0.34,0.15,0.34,0.34
		v0C15,8.86,14.85,9.01,14.66,9.01z"/>
	<path class="st1" d="M12.79,12.01h-2.68c-0.19,0-0.34-0.15-0.34-0.34v0c0-0.19,0.15-0.34,0.34-0.34h2.68
		c0.19,0,0.34,0.15,0.34,0.34v0C13.13,11.86,12.97,12.01,12.79,12.01z"/>
	<path class="st1" d="M10.47,15.01h-0.36c-0.19,0-0.34-0.15-0.34-0.34v0c0-0.19,0.15-0.34,0.34-0.34h0.36
		c0.19,0,0.34,0.15,0.34,0.34v0C10.81,14.86,10.66,15.01,10.47,15.01z"/>
	<path class="st1" d="M17.59,23.31h4.55c0.19,0,0.34,0.15,0.34,0.34l0,0c0,0.19-0.15,0.34-0.34,0.34h-4.55
		c-0.19,0-0.34-0.15-0.34-0.34l0,0C17.25,23.46,17.41,23.31,17.59,23.31z"/>
	<path class="st1" d="M19.47,20.31h2.68c0.19,0,0.34,0.15,0.34,0.34l0,0c0,0.19-0.15,0.34-0.34,0.34h-2.68
		c-0.19,0-0.34-0.15-0.34-0.34l0,0C19.13,20.46,19.28,20.31,19.47,20.31z"/>
	<path class="st1" d="M21.79,17.31h0.36c0.19,0,0.34,0.15,0.34,0.34l0,0c0,0.19-0.15,0.34-0.34,0.34h-0.36
		c-0.19,0-0.34-0.15-0.34-0.34l0,0C21.45,17.46,21.6,17.31,21.79,17.31z"/>
</g>
</svg>
